# xmcd
#
# Track frame offsets:
#	150
#	15571
#	29015
#	40772
#	61464
#	81599
#	103506
#	124884
#	145114
#	159396
#	179738
#	197242
#	215010
#	237124
#	257081
#
# Disc length: 3653 seconds
#
# Revision: 0
# Processed by: cddbd v1.5.2PL0 Copyright (c) Steve Scherf et al.
# Submitted via: SynApp - FreeCDDB Version: 2.5
#
DISCID=db0e430f
DTITLE=Various Artist - Klammer Blues Hits
DYEAR=2007
DGENRE=Blues
TTITLE0=Terry Jacks - Seasons in the Sun
TTITLE1=Scott McKenzie - San Franzisko
TTITLE2=The Platters - Only You
TTITLE3=Melanie - Ruby Tuesday
TTITLE4=The Moody Blues - Nights in white Satin
TTITLE5=Simon and Garfunkel - Bridge over troubled Water
TTITLE6=Boston - More than a Feeling
TTITLE7=Bonnie Tyler - Total Eclipse of the Heart
TTITLE8=Jonny Logan - What's another Year
TTITLE9=Europe - Carrie
TTITLE10=Bangles - Eternal Flame
TTITLE11=Marvin Gaye - Sexual Healing
TTITLE12=Ricky Martin - She's all I ever had
TTITLE13=Laith Al-Deen - Ganz oder gar nicht
TTITLE14=Yvonne Catterfield - Für Dich
EXTD=
EXTT0=
EXTT1=
EXTT2=
EXTT3=
EXTT4=
EXTT5=
EXTT6=
EXTT7=
EXTT8=
EXTT9=
EXTT10=
EXTT11=
EXTT12=
EXTT13=
EXTT14=
PLAYORDER=
